<svg xmlns="http://www.w3.org/2000/svg" width="24" height="24" viewBox="0 0 24 24">
    <defs>
        <style>
            .cls-1{fill:#50b748}.cls-2{fill:#10a711}.cls-3{fill:#fff}
        </style>
    </defs>
    <g id="Icon_Tick" data-name="Icon Tick" transform="translate(0 -1028.362)">
        <circle id="Ellipse_64" cx="12" cy="12" r="12" class="cls-1" data-name="Ellipse 64" transform="translate(0 1028.362)"/>
        <path id="Path_568" d="M14.525 23.717q.345-.067.686-.154.577-.161 1.137-.379t1.1-.488a12 12 0 0 0 1.041-.6q.5-.324.975-.7a12 12 0 0 0 .9-.793q.43-.418.816-.877a12 12 0 0 0 .727-.955q.339-.495.627-1.021t.521-1.08q.234-.553.412-1.127.152-.5.26-1.016L16.6 7.4a6.5 6.5 0 1 0-9.2 9.2z" class="cls-2" data-name="Path 568" transform="translate(0 1028.362)"/>
        <path id="Path_569" d="M8.5 2a6.5 6.5 0 1 1-4.6 1.906A6.478 6.478 0 0 1 8.5 2zm2.961 4.5a.5.5 0 0 0-.262.1L7.551 9.346 5.857 7.652c-.367-.383-1.09.34-.707.707l2 2a.517.517 0 0 0 .652.047l4-3a.528.528 0 0 0-.287-.9h-.051z" class="cls-3" data-name="Path 569" transform="translate(3.497 1031.859)"/>
    </g>
</svg>
