<?xml version="1.0" encoding="UTF-8" standalone="no"?>
<!DOCTYPE svg PUBLIC "-//W3C//DTD SVG 1.1//EN"
 "http://www.w3.org/Graphics/SVG/1.1/DTD/svg11.dtd">
<!-- Generated by graphviz version 2.40.1 (20161225.0304)
 -->
<!-- Title: dependencies Pages: 1 -->
<svg width="504pt" height="211pt"
 viewBox="0.00 0.00 504.00 211.00" xmlns="http://www.w3.org/2000/svg" xmlns:xlink="http://www.w3.org/1999/xlink">
<g id="graph0" class="graph" transform="scale(1 1) rotate(0) translate(4 207)">
<title>dependencies</title>
<polygon fill="#ffffff" stroke="transparent" points="-4,4 -4,-207 500,-207 500,4 -4,4"/>
<text text-anchor="start" x="227.0091" y="-42.4" font-family="sans-serif" font-weight="bold" font-size="14.00" fill="#000000">Legend</text>
<polygon fill="#ffffb3" stroke="transparent" points="14,-10 14,-30 34,-30 34,-10 14,-10"/>
<text text-anchor="start" x="37.629" y="-15.4" font-family="sans-serif" font-size="14.00" fill="#000000"> &#160;Declarations</text>
<polygon fill="#8dd3c7" stroke="transparent" points="127,-10 127,-30 147,-30 147,-10 127,-10"/>
<text text-anchor="start" x="150.7251" y="-15.4" font-family="sans-serif" font-size="14.00" fill="#000000"> &#160;Module</text>
<polygon fill="#80b1d3" stroke="transparent" points="213,-10 213,-30 233,-30 233,-10 213,-10"/>
<text text-anchor="start" x="236.7812" y="-15.4" font-family="sans-serif" font-size="14.00" fill="#000000"> &#160;Bootstrap</text>
<polygon fill="#fdb462" stroke="transparent" points="310,-10 310,-30 330,-30 330,-10 310,-10"/>
<text text-anchor="start" x="333.6732" y="-15.4" font-family="sans-serif" font-size="14.00" fill="#000000"> &#160;Providers</text>
<polygon fill="#fb8072" stroke="transparent" points="406,-10 406,-30 426,-30 426,-10 406,-10"/>
<text text-anchor="start" x="429.7258" y="-15.4" font-family="sans-serif" font-size="14.00" fill="#000000"> &#160;Exports</text>
<g id="clust1" class="cluster">
<title>cluster_ForgotPasswordPageModule</title>
<polygon fill="none" stroke="#000000" stroke-dasharray="1,5" points="42,-70 42,-195 454,-195 454,-70 42,-70"/>
</g>
<g id="clust2" class="cluster">
<title>cluster_ForgotPasswordPageModule_declarations</title>
<polygon fill="none" stroke="#000000" points="296,-78 296,-130 446,-130 446,-78 296,-78"/>
</g>
<g id="clust4" class="cluster">
<title>cluster_ForgotPasswordPageModule_imports</title>
<polygon fill="none" stroke="#000000" points="50,-78 50,-130 288,-130 288,-78 50,-78"/>
</g>
<!-- ForgotPasswordPage -->
<g id="node1" class="node">
<title>ForgotPasswordPage</title>
<polygon fill="#ffffb3" stroke="#000000" points="438.1993,-122 303.8007,-122 303.8007,-86 438.1993,-86 438.1993,-122"/>
<text text-anchor="middle" x="371" y="-99.8" font-family="Times,serif" font-size="14.00" fill="#000000">ForgotPasswordPage</text>
</g>
<!-- ForgotPasswordPageModule -->
<g id="node2" class="node">
<title>ForgotPasswordPageModule</title>
<polygon fill="#8dd3c7" stroke="#000000" points="351.7492,-187 348.7492,-191 327.7492,-191 324.7492,-187 174.2508,-187 174.2508,-151 351.7492,-151 351.7492,-187"/>
<text text-anchor="middle" x="263" y="-164.8" font-family="Times,serif" font-size="14.00" fill="#000000">ForgotPasswordPageModule</text>
</g>
<!-- ForgotPasswordPage&#45;&gt;ForgotPasswordPageModule -->
<g id="edge1" class="edge">
<title>ForgotPasswordPage&#45;&gt;ForgotPasswordPageModule</title>
<path fill="none" stroke="#000000" d="M327.8875,-122.1061C327.8875,-122.1061 327.8875,-140.991 327.8875,-140.991"/>
<polygon fill="#000000" stroke="#000000" points="324.3875,-140.9909 327.8875,-150.991 331.3875,-140.991 324.3875,-140.9909"/>
</g>
<!-- ForgotPasswordPageRoutingModule -->
<g id="node3" class="node">
<title>ForgotPasswordPageRoutingModule</title>
<polygon fill="#8dd3c7" stroke="#000000" points="280.3668,-122 277.3668,-126 256.3668,-126 253.3668,-122 57.6332,-122 57.6332,-86 280.3668,-86 280.3668,-122"/>
<text text-anchor="middle" x="169" y="-99.8" font-family="Times,serif" font-size="14.00" fill="#000000">ForgotPasswordPageRoutingModule</text>
</g>
<!-- ForgotPasswordPageRoutingModule&#45;&gt;ForgotPasswordPageModule -->
<g id="edge2" class="edge">
<title>ForgotPasswordPageRoutingModule&#45;&gt;ForgotPasswordPageModule</title>
<path fill="none" stroke="#000000" d="M227.2795,-122.1061C227.2795,-122.1061 227.2795,-140.991 227.2795,-140.991"/>
<polygon fill="#000000" stroke="#000000" points="223.7795,-140.9909 227.2795,-150.991 230.7795,-140.991 223.7795,-140.9909"/>
</g>
</g>
</svg>
